<svg xmlns="http://www.w3.org/2000/svg" width="213.5" height="61.79" viewBox="0 0 213.5 61.79"><defs><style>.a{font-size:25px;font-family:Roboto-Medium, Roboto;font-weight:500;}.b{fill:#f43a3a;stroke:rgba(0,0,0,0);}.c{fill:#a8a8a8;font-size:22px;font-family:Roboto-Light, Roboto;font-weight:300;}</style></defs><g transform="translate(0.5 19.161)"><text class="a" transform="translate(67 6.839)"><tspan x="0" y="0">Vodafone</tspan></text><g transform="translate(0 -13.9)"><path class="b" d="M26.309,52.617A26.316,26.316,0,0,1,16.068,2.067,26.316,26.316,0,0,1,36.549,50.549,26.142,26.142,0,0,1,26.309,52.617Zm9.01-49.409a17.937,17.937,0,0,0-1.946.117,25.967,25.967,0,0,0-3.271.586c-.439.107-.883.227-1.32.356-.706.208-1.419.45-2.119.719a24.15,24.15,0,0,0-7.084,4.15,22.353,22.353,0,0,0-7.273,11.589,20.366,20.366,0,0,0-.558,3.716v.024c0,.083-.008.164-.011.246a17.984,17.984,0,0,0,.087,2.668,17.066,17.066,0,0,0,.473,2.554c.027.109.058.218.088.323l0,.016a15.756,15.756,0,0,0,1.876,4.163,14.868,14.868,0,0,0,1.887,2.36,14.647,14.647,0,0,0,6.363,3.812,13.891,13.891,0,0,0,2.212.454,13.684,13.684,0,0,0,1.463.1h.2a13.966,13.966,0,0,0,8.608-2.98,13.623,13.623,0,0,0,1.189-1.052,13.443,13.443,0,0,0,2.507-3.44,13.882,13.882,0,0,0,1.5-6.282c0-.162,0-.327-.01-.5a14.69,14.69,0,0,0-.6-3.744,12.308,12.308,0,0,0-1.56-3.312c-.065-.1-.134-.2-.21-.3a12.4,12.4,0,0,0-3.586-3.306A16.994,16.994,0,0,0,28.778,14.1c0-.036,0-.072-.007-.108,0-.068-.01-.139-.01-.211a10.485,10.485,0,0,1,1.991-6.17,10.634,10.634,0,0,1,5.092-3.819c.359-.128.551-.242.571-.339a.209.209,0,0,0,0-.04c-.045-.138-.464-.2-.809-.2Q35.464,3.208,35.319,3.208Z" transform="translate(0 0.001)"/></g><text class="c" transform="translate(67 36.629)"><tspan x="0" y="0">Customer Care</tspan></text></g></svg>