<svg xmlns="http://www.w3.org/2000/svg" width="122" height="122" viewBox="0 0 122 122">
  <g id="Group_964" data-name="Group 964" transform="translate(-816 -244)">
    <circle id="invoice-label" cx="61" cy="61" r="61" transform="translate(816 244)" fill="#f3f3f3"/>
    <g id="add" transform="translate(841 272)">
      <path id="Path_2103" data-name="Path 2103" d="M88.315,110.714V98.672H25.789V128.84h40.6v21.242H83.779a4.536,4.536,0,0,0,4.536-4.536V135.385" transform="translate(-21.743 -83.191)" fill="#fff"/>
      <path id="Path_2104" data-name="Path 2104" d="M77.481,23.913V14.536A4.536,4.536,0,0,0,72.945,10H14.536A4.536,4.536,0,0,0,10,14.536v9.376h67.48Zm0,0" transform="translate(-8.431 -8.431)" fill="#e8e8e8"/>
      <path id="Path_2105" data-name="Path 2105" d="M180.371,118.32l-10.215-5.426-10.215,5.426V98.676h20.43Zm0,0" transform="translate(-134.847 -83.194)" fill="#d5d5d5"/>
      <path id="Path_2106" data-name="Path 2106" d="M159.941,10h20.43V23.913h-20.43Zm0,0" transform="translate(-134.847 -8.431)" fill="#d5d5d5"/>
      <path id="Path_2107" data-name="Path 2107" d="M66.385,290.953V312.2H30.325a4.535,4.535,0,0,1-4.536-4.536V290.953Zm0,0" transform="translate(-21.742 -245.304)" fill="#f9f9f9"/>
      <path id="Path_2108" data-name="Path 2108" d="M372.024,189.231a12.094,12.094,0,1,0-12.094,12.082A12.088,12.088,0,0,0,372.024,189.231Zm0,0" transform="translate(-293.262 -149.355)" fill="#eee"/>
      <path id="Path_2109" data-name="Path 2109" d="M80.331,39.876A13.675,13.675,0,0,0,68.141,26.3V17.05h.908a1.569,1.569,0,0,0,1.569-1.569V6.1a6.111,6.111,0,0,0-6.1-6.1H6.105A6.111,6.111,0,0,0,0,6.1v9.376A1.569,1.569,0,0,0,1.569,17.05h.908V62.355a6.112,6.112,0,0,0,6.1,6.1H62.036a6.112,6.112,0,0,0,6.1-6.1V53.448A13.675,13.675,0,0,0,80.331,39.876ZM67.48,6.1v7.807H47.093V3.138H64.514A2.97,2.97,0,0,1,67.481,6.1ZM26.663,17.051H43.955V32.516l-7.91-4.2a1.566,1.566,0,0,0-1.472,0l-7.91,4.2ZM43.955,3.138V13.913H26.663V3.138ZM3.138,6.1A2.97,2.97,0,0,1,6.105,3.138h17.42V13.912H3.138ZM5.615,62.355V47.218H43.074v18.1H8.582a2.971,2.971,0,0,1-2.967-2.967Zm56.421,2.967H46.212V45.649a1.569,1.569,0,0,0-1.569-1.569H5.615V17.05h17.91V35.125a1.569,1.569,0,0,0,2.305,1.386l9.479-5.035,9.479,5.035a1.569,1.569,0,0,0,2.305-1.386V17.05H65v9.275a13.651,13.651,0,0,0,0,27.1v8.928a2.97,2.97,0,0,1-2.967,2.967Zm4.631-14.933A10.514,10.514,0,1,1,77.193,39.876,10.531,10.531,0,0,1,66.668,50.389Zm0,0"/>
      <path id="Path_2111" data-name="Path 2111" d="M146.564,330.309a1.569,1.569,0,1,1,1.538-1.263A1.583,1.583,0,0,1,146.564,330.309Zm0,0" transform="translate(-122.249 -275.843)"/>
      <path id="Path_2112" data-name="Path 2112" d="M66.077,330.286H59.483a1.569,1.569,0,0,1,0-3.138h6.594a1.569,1.569,0,1,1,0,3.138Zm0,0" transform="translate(-48.827 -275.82)"/>
      <path id="Path_2113" data-name="Path 2113" d="M198.55,330.286h-6.594a1.569,1.569,0,0,1,0-3.138h6.594a1.569,1.569,0,1,1,0,3.138Zm0,0" transform="translate(-160.516 -275.82)"/>
      <path id="Path_2114" data-name="Path 2114" d="M86.861,373.294H59.483a1.569,1.569,0,0,1,0-3.138H86.861a1.569,1.569,0,0,1,0,3.138Zm0,0" transform="translate(-48.827 -312.08)"/>
    </g>
  </g>
</svg>
